<svg width="20" height="20" viewBox="0 0 20 20" fill="none" xmlns="http://www.w3.org/2000/svg">
<path d="M17.825 19.65L11.475 13.3C10.975 13.6833 10.3625 13.9875 9.63751 14.2125C8.91251 14.4375 8.17501 14.55 7.42501 14.55C5.44168 14.55 3.76251 13.8625 2.38751 12.4875C1.01251 11.1125 0.325012 9.43331 0.325012 7.44998C0.325012 5.46664 1.01251 3.78748 2.38751 2.41248C3.76251 1.03748 5.44168 0.349976 7.42501 0.349976C9.40835 0.349976 11.0875 1.03748 12.4625 2.41248C13.8375 3.78748 14.525 5.46664 14.525 7.44998C14.525 8.19998 14.4208 8.91664 14.2125 9.59998C14.0042 10.2833 13.7 10.8916 13.3 11.425L19.675 17.8L17.825 19.65ZM7.42501 11.9C8.67501 11.9 9.72918 11.4708 10.5875 10.6125C11.4458 9.75414 11.875 8.69998 11.875 7.44998C11.875 6.19998 11.4458 5.14581 10.5875 4.28748C9.72918 3.42914 8.67501 2.99998 7.42501 2.99998C6.17501 2.99998 5.12085 3.42914 4.26251 4.28748C3.40418 5.14581 2.97501 6.19998 2.97501 7.44998C2.97501 8.69998 3.40418 9.75414 4.26251 10.6125C5.12085 11.4708 6.17501 11.9 7.42501 11.9Z" fill="black"/>
</svg>
