<svg width="20" height="20" viewBox="0 0 20 20" fill="none" xmlns="http://www.w3.org/2000/svg">
<path d="M17.825 19.65L11.475 13.3C10.975 13.6833 10.3625 13.9875 9.6375 14.2125C8.9125 14.4375 8.175 14.55 7.425 14.55C5.44167 14.55 3.7625 13.8625 2.3875 12.4875C1.0125 11.1125 0.325001 9.43331 0.325001 7.44998C0.325001 5.46664 1.0125 3.78748 2.3875 2.41248C3.7625 1.03748 5.44167 0.349976 7.425 0.349976C9.40833 0.349976 11.0875 1.03748 12.4625 2.41248C13.8375 3.78748 14.525 5.46664 14.525 7.44998C14.525 8.19998 14.4208 8.91664 14.2125 9.59998C14.0042 10.2833 13.7 10.8916 13.3 11.425L19.675 17.8L17.825 19.65ZM7.425 11.9C8.675 11.9 9.72917 11.4708 10.5875 10.6125C11.4458 9.75414 11.875 8.69998 11.875 7.44998C11.875 6.19998 11.4458 5.14581 10.5875 4.28748C9.72917 3.42914 8.675 2.99998 7.425 2.99998C6.175 2.99998 5.12083 3.42914 4.2625 4.28748C3.40417 5.14581 2.975 6.19998 2.975 7.44998C2.975 8.69998 3.40417 9.75414 4.2625 10.6125C5.12083 11.4708 6.175 11.9 7.425 11.9Z" fill="#F6F6F6"/>
</svg>
