<svg width="48" height="48" viewBox="0 0 48 48" fill="none" xmlns="http://www.w3.org/2000/svg">
<rect width="48" height="48" rx="24" fill="#343434"/>
<path d="M27.3966 26.2798C26.6716 27.0048 25.7508 27.8706 24.6327 28.878C24.6325 28.8782 24.6323 28.8784 24.6321 28.8785L24.0002 29.4451L23.3682 28.8785C23.368 28.8784 23.3678 28.8782 23.3676 28.878C22.2495 27.8706 21.3287 27.0048 20.6037 26.2798C19.881 25.5571 19.3156 24.9176 18.9015 24.3602C18.4871 23.8022 18.2138 23.3107 18.0634 22.8839C17.9097 22.4476 17.8335 22.0037 17.8335 21.55C17.8335 20.63 18.1364 19.8875 18.737 19.2869C19.3377 18.6862 20.0802 18.3833 21.0002 18.3833C21.5048 18.3833 21.9825 18.4895 22.4382 18.7028C22.8947 18.9165 23.2873 19.2167 23.6192 19.6072L24.0002 20.0554L24.3811 19.6072C24.713 19.2167 25.1056 18.9165 25.5621 18.7028C26.0179 18.4895 26.4955 18.3833 27.0002 18.3833C27.9201 18.3833 28.6626 18.6862 29.2633 19.2869C29.8639 19.8875 30.1668 20.63 30.1668 21.55C30.1668 22.0037 30.0906 22.4476 29.9369 22.8839C29.7865 23.3107 29.5133 23.8022 29.0988 24.3602C28.6847 24.9176 28.1193 25.5571 27.3966 26.2798Z" stroke="white"/>
</svg>
