<svg width="12" height="12" viewBox="0 0 12 12" fill="none" xmlns="http://www.w3.org/2000/svg">
<path d="M1.33333 11.3333C0.966667 11.3333 0.652778 11.2028 0.391667 10.9417C0.130556 10.6805 0 10.3667 0 9.99999V1.99999C0 1.63332 0.130556 1.31943 0.391667 1.05832C0.652778 0.797212 0.966667 0.666656 1.33333 0.666656H10.6667C11.0333 0.666656 11.3472 0.797212 11.6083 1.05832C11.8694 1.31943 12 1.63332 12 1.99999V9.99999C12 10.3667 11.8694 10.6805 11.6083 10.9417C11.3472 11.2028 11.0333 11.3333 10.6667 11.3333H1.33333ZM2.66667 7.99999H4.66667C4.85556 7.99999 5.01389 7.9361 5.14167 7.80832C5.26944 7.68055 5.33333 7.52221 5.33333 7.33332V6.66666H4.33333V6.99999H3V4.99999H4.33333V5.33332H5.33333V4.66666C5.33333 4.47777 5.26944 4.31943 5.14167 4.19166C5.01389 4.06388 4.85556 3.99999 4.66667 3.99999H2.66667C2.47778 3.99999 2.31944 4.06388 2.19167 4.19166C2.06389 4.31943 2 4.47777 2 4.66666V7.33332C2 7.52221 2.06389 7.68055 2.19167 7.80832C2.31944 7.9361 2.47778 7.99999 2.66667 7.99999ZM7.33333 7.99999H9.33333C9.52222 7.99999 9.68056 7.9361 9.80833 7.80832C9.93611 7.68055 10 7.52221 10 7.33332V6.66666H9V6.99999H7.66667V4.99999H9V5.33332H10V4.66666C10 4.47777 9.93611 4.31943 9.80833 4.19166C9.68056 4.06388 9.52222 3.99999 9.33333 3.99999H7.33333C7.14444 3.99999 6.98611 4.06388 6.85833 4.19166C6.73056 4.31943 6.66667 4.47777 6.66667 4.66666V7.33332C6.66667 7.52221 6.73056 7.68055 6.85833 7.80832C6.98611 7.9361 7.14444 7.99999 7.33333 7.99999Z" fill="#F6F6F6"/>
</svg>
