<svg width="48" height="48" viewBox="0 0 48 48" fill="none" xmlns="http://www.w3.org/2000/svg">
<rect width="48" height="48" rx="24" fill="#343434"/>
<path d="M23.9999 30.1167L23.0333 29.25C21.911 28.2389 20.9833 27.3667 20.2499 26.6333C19.5166 25.9 18.9333 25.2417 18.4999 24.6583C18.0666 24.075 17.7638 23.5389 17.5916 23.05C17.4194 22.5611 17.3333 22.0611 17.3333 21.55C17.3333 20.5056 17.6833 19.6333 18.3833 18.9333C19.0833 18.2333 19.9555 17.8833 20.9999 17.8833C21.5777 17.8833 22.1277 18.0056 22.6499 18.25C23.1721 18.4944 23.6221 18.8389 23.9999 19.2833C24.3777 18.8389 24.8277 18.4944 25.3499 18.25C25.8721 18.0056 26.4221 17.8833 26.9999 17.8833C28.0444 17.8833 28.9166 18.2333 29.6166 18.9333C30.3166 19.6333 30.6666 20.5056 30.6666 21.55C30.6666 22.0611 30.5805 22.5611 30.4083 23.05C30.236 23.5389 29.9333 24.075 29.4999 24.6583C29.0666 25.2417 28.4833 25.9 27.7499 26.6333C27.0166 27.3667 26.0888 28.2389 24.9666 29.25L23.9999 30.1167Z" fill="#FF584E"/>
</svg>
