<svg width="12" height="12" viewBox="0 0 12 12" fill="none" xmlns="http://www.w3.org/2000/svg">
<path d="M6.00008 5.99999C5.26675 5.99999 4.63897 5.73888 4.11675 5.21666C3.59453 4.69443 3.33341 4.06666 3.33341 3.33332C3.33341 2.59999 3.59453 1.97221 4.11675 1.44999C4.63897 0.927768 5.26675 0.666656 6.00008 0.666656C6.73341 0.666656 7.36119 0.927768 7.88341 1.44999C8.40564 1.97221 8.66675 2.59999 8.66675 3.33332C8.66675 4.06666 8.40564 4.69443 7.88341 5.21666C7.36119 5.73888 6.73341 5.99999 6.00008 5.99999ZM0.666748 11.3333V9.46666C0.666748 9.08888 0.76397 8.74166 0.958415 8.42499C1.15286 8.10832 1.41119 7.86666 1.73341 7.69999C2.4223 7.35555 3.1223 7.09721 3.83341 6.92499C4.54453 6.75277 5.26675 6.66666 6.00008 6.66666C6.73341 6.66666 7.45564 6.75277 8.16675 6.92499C8.87786 7.09721 9.57786 7.35555 10.2667 7.69999C10.589 7.86666 10.8473 8.10832 11.0417 8.42499C11.2362 8.74166 11.3334 9.08888 11.3334 9.46666V11.3333H0.666748Z" fill="#F6F6F6"/>
</svg>
