<svg width="14" height="14" viewBox="0 0 14 14" fill="none" xmlns="http://www.w3.org/2000/svg">
<path d="M7 13.1166L6.03334 12.25C4.91111 11.2389 3.98334 10.3666 3.25 9.6333C2.51667 8.89997 1.93334 8.24163 1.5 7.6583C1.06667 7.07497 0.763891 6.53886 0.591669 6.04997C0.419447 5.56108 0.333336 5.06108 0.333336 4.54997C0.333336 3.50552 0.683336 2.6333 1.38334 1.9333C2.08334 1.2333 2.95556 0.883301 4 0.883301C4.57778 0.883301 5.12778 1.00552 5.65 1.24997C6.17222 1.49441 6.62222 1.83886 7 2.2833C7.37778 1.83886 7.82778 1.49441 8.35 1.24997C8.87223 1.00552 9.42222 0.883301 10 0.883301C11.0444 0.883301 11.9167 1.2333 12.6167 1.9333C13.3167 2.6333 13.6667 3.50552 13.6667 4.54997C13.6667 5.06108 13.5806 5.56108 13.4083 6.04997C13.2361 6.53886 12.9333 7.07497 12.5 7.6583C12.0667 8.24163 11.4833 8.89997 10.75 9.6333C10.0167 10.3666 9.08889 11.2389 7.96667 12.25L7 13.1166Z" fill="#FF584E"/>
</svg>
